<?xml version="1.0" standalone="no"?>
<!DOCTYPE svg PUBLIC "-//W3C//DTD SVG 20010904//EN"
 "http://www.w3.org/TR/2001/REC-SVG-20010904/DTD/svg10.dtd">
<svg version="1.0" xmlns="http://www.w3.org/2000/svg"
 width="736.000000pt" height="552.000000pt" viewBox="0 0 736.000000 552.000000"
 preserveAspectRatio="xMidYMid meet">
<metadata>
Created by potrace 1.15, written by Peter Selinger 2001-2017
</metadata>
<g transform="translate(0.000000,552.000000) scale(0.100000,-0.100000)"
fill="#000000" stroke="none">
<path d="M2970 2760 l0 -560 240 0 240 0 0 147 c0 91 4 143 9 138 6 -6 45 -71
88 -145 l79 -135 82 -3 c45 -2 82 -1 82 2 0 4 -110 191 -277 471 l-60 100 -71
3 -72 3 0 -221 0 -221 -97 3 -98 3 0 415 0 415 115 2 115 2 87 -147 c48 -81
161 -273 253 -427 91 -154 183 -308 203 -342 l37 -63 223 0 c205 0 222 1 223
18 1 31 1 1057 0 1080 l-1 22 -235 0 -235 0 0 -140 c0 -77 -3 -140 -7 -140 -5
0 -45 63 -91 140 l-83 140 -79 0 c-44 0 -80 -2 -80 -3 0 -4 143 -247 270 -459
l64 -108 73 0 73 0 0 215 0 215 95 0 95 0 0 -420 0 -420 -113 0 -112 0 -30 53
c-17 30 -147 250 -290 490 l-260 436 -227 1 -228 0 0 -560z"/>
</g>
</svg>
